<svg width="100" height="94" viewBox="0 0 100 94" fill="none" xmlns="http://www.w3.org/2000/svg">
<g style="mix-blend-mode:multiply" opacity="0.35">
<g style="mix-blend-mode:multiply" opacity="0.35">
<path d="M25.3746 1.08075C26.5179 0.646779 27.4725 1.28632 29.2674 0.509734C29.8848 0.247064 29.982 0.0814708 30.4564 0.0129482C31.0612 -0.0403957 31.6691 0.0717339 32.2149 0.33731C32.7608 0.602887 33.2239 1.01189 33.5547 1.52044C34.5951 3.31345 33.0688 6.62537 30.6279 7.7617C27.6897 9.12644 23.4539 7.3163 23.0709 4.90659C23.0216 4.11083 23.2155 3.31887 23.6269 2.63565C24.0383 1.95243 24.6478 1.41018 25.3746 1.08075Z" fill="#95EDC7"/>
</g>
</g>
<path d="M52.5901 30.2656C53.5783 30.2656 54.3793 29.4654 54.3793 28.4783C54.3793 27.4912 53.5783 26.691 52.5901 26.691C51.602 26.691 50.8009 27.4912 50.8009 28.4783C50.8009 29.4654 51.602 30.2656 52.5901 30.2656Z" fill="#D3F3F2"/>
<path d="M67.9614 32.8181H60.3187H52.676V44.8495H60.3187H67.9614L62.2965 38.8367L67.9614 32.8181Z" fill="#93DDDE"/>
<path d="M44.6272 92.3698L56.0656 80.9437L59.4554 84.3298L68.9102 74.8909L71.3568 72.4469L78.485 79.5675L81.6405 82.7253L91.2953 92.3698H44.6272Z" fill="white"/>
<path d="M44.6271 92.3699L56.0655 80.9438L59.4552 84.3299L68.91 74.8909L68.3441 75.4563L52.7271 59.856L48.7371 63.8474L33.3088 79.2593L27.7696 73.7261L9.1001 92.3813L44.6271 92.3699Z" fill="#D3F3F2"/>
<path d="M85.2877 93.2379H7.03113L27.77 72.5156L33.3091 78.0488L48.1315 63.2422L49.3434 64.4527L33.3091 80.4699L27.77 74.9367L11.1697 91.5249H85.2877V93.2379Z" fill="#323232"/>
<path d="M67.7383 76.0615L52.7272 61.0665L49.3432 64.4527L48.1313 63.2421L52.7272 58.6454L68.9502 74.851L67.7383 76.0615Z" fill="#323232"/>
<path d="M93.3645 93.2264H42.5578L56.0655 79.7332L59.4552 83.1193L68.3041 74.2856L69.516 75.4962L59.4552 85.5462L56.0655 82.1543L46.7021 91.5133H89.2259L77.879 80.1786L79.0908 78.9623L93.3645 93.2264Z" fill="#323232"/>
<path d="M77.8791 80.1786L71.3568 73.6576L69.5161 75.4963L68.3043 74.2857L71.3568 71.2365L79.091 78.9624L77.8791 80.1786Z" fill="#323232"/>
<path d="M95.9942 91.6389H3.29254V93.352H95.9942V91.6389Z" fill="#323232"/>
<path d="M99.4638 91.6389H97.7432V93.352H99.4638V91.6389Z" fill="#323232"/>
<path d="M1.72062 91.6389H0V93.352H1.72062V91.6389Z" fill="#323232"/>
<path d="M53.4475 30.1514H51.7326V60.8894H53.4475V30.1514Z" fill="#323232"/>
<path d="M69.9335 45.706H51.8242V31.9615H69.9335L63.4626 38.8138L69.9335 45.706ZM53.5219 43.993H65.9664L61.1075 38.8538L65.9664 33.7146H53.5391L53.5219 43.993Z" fill="#323232"/>
<path d="M52.5902 31.1392C52.0667 31.1392 51.555 30.9842 51.1198 30.6937C50.6846 30.4032 50.3453 29.9902 50.145 29.5071C49.9447 29.024 49.8923 28.4925 49.9944 27.9796C50.0965 27.4668 50.3486 26.9957 50.7187 26.6259C51.0889 26.2562 51.5605 26.0044 52.0739 25.9024C52.5873 25.8003 53.1194 25.8527 53.603 26.0528C54.0867 26.2529 54.5 26.5918 54.7908 27.0266C55.0816 27.4613 55.2369 27.9725 55.2369 28.4954C55.2376 28.8428 55.1697 29.1869 55.0369 29.508C54.9042 29.8291 54.7093 30.1209 54.4634 30.3666C54.2174 30.6122 53.9254 30.8069 53.6039 30.9395C53.2825 31.0721 52.938 31.14 52.5902 31.1392ZM52.5902 27.5703C52.4057 27.5703 52.2253 27.6251 52.072 27.7276C51.9186 27.8301 51.7992 27.9758 51.7288 28.1462C51.6585 28.3167 51.6404 28.5041 51.6768 28.6848C51.7132 28.8655 51.8025 29.0313 51.9334 29.1613C52.0643 29.2912 52.2308 29.3794 52.412 29.4147C52.5931 29.4499 52.7806 29.4307 52.9508 29.3594C53.1209 29.288 53.266 29.1679 53.3677 29.0141C53.4694 28.8602 53.5231 28.6797 53.522 28.4954C53.5242 28.3717 53.5018 28.2489 53.456 28.1339C53.4102 28.019 53.3419 27.9144 53.2552 27.8261C53.1684 27.7379 53.065 27.6678 52.9508 27.62C52.8366 27.5721 52.714 27.5475 52.5902 27.5475V27.5703Z" fill="#323232"/>
</svg>
