<svg width="75" height="75" viewBox="0 0 75 75" fill="none" xmlns="http://www.w3.org/2000/svg">
<path d="M55.5741 6.69877C55.3487 5.13215 54.5094 3.71914 53.2411 2.77062C51.9727 1.82209 50.3791 1.41574 48.8108 1.64094C47.2425 1.86615 45.828 2.70446 44.8784 3.97147C43.9289 5.23848 43.5221 6.8304 43.7475 8.39702L55.5741 6.69877Z" fill="#26C5BF"/>
<path d="M18.9921 6.69881C19.0808 5.90412 19.3285 5.13534 19.7205 4.43815C20.1124 3.74096 20.6407 3.12958 21.2738 2.64031C21.9069 2.15104 22.632 1.79387 23.406 1.59001C24.18 1.38615 24.9872 1.33977 25.7795 1.45361C26.5718 1.56744 27.3332 1.83919 28.0183 2.2527C28.7034 2.6662 29.2983 3.21303 29.7678 3.86071C30.2372 4.50839 30.5715 5.24372 30.7509 6.023C30.9302 6.80227 30.951 7.60961 30.8119 8.39705L18.9921 6.69881Z" fill="#26C5BF"/>
<path d="M37.3569 50.4639C39.6838 50.4639 41.5702 48.5796 41.5702 46.2552C41.5702 43.9308 39.6838 42.0465 37.3569 42.0465C35.03 42.0465 33.1437 43.9308 33.1437 46.2552C33.1437 48.5796 35.03 50.4639 37.3569 50.4639Z" fill="white"/>
<path d="M41.288 27.1247C41.288 26.0832 40.8738 25.0844 40.1366 24.348C39.3994 23.6116 38.3996 23.1979 37.357 23.1979C36.3144 23.1979 35.3146 23.6116 34.5774 24.348C33.8402 25.0844 33.426 26.0832 33.426 27.1247L33.2916 46.2685C33.2916 45.2307 33.7044 44.2353 34.439 43.5014C35.1737 42.7675 36.1702 42.3552 37.2092 42.3552C38.2482 42.3552 39.2446 42.7675 39.9793 43.5014C40.714 44.2353 41.1267 45.2307 41.1267 46.2685L41.288 27.1247Z" fill="#26C5BF"/>
<path d="M23.4674 6.21545C21.0907 6.16656 18.7697 6.93767 16.8957 8.39881C15.0218 9.85996 13.7093 11.9218 13.1797 14.2368L3.18085 49.947C4.96169 46.8962 7.70543 44.5219 10.9821 43.196C14.2588 41.8701 17.8833 41.6676 21.2876 42.6202C24.6918 43.5729 27.6835 45.6268 29.7938 48.4602C31.9041 51.2935 33.0137 54.7462 32.9488 58.2771L33.6208 16.7204C33.6448 15.3646 33.4012 14.0174 32.904 12.7557C32.4067 11.4939 31.6654 10.3424 30.7226 9.36688C29.7797 8.39136 28.6537 7.61097 27.4088 7.07023C26.164 6.5295 24.8247 6.23904 23.4674 6.21545Z" fill="white"/>
<path d="M3.18071 49.947C1.80629 52.2989 1.05899 54.9636 1.01028 57.6865L3.18071 49.947Z" fill="white"/>
<path d="M51.1593 6.21544C53.5335 6.17094 55.8506 6.94394 57.7216 8.40463C59.5925 9.86531 60.9033 11.9247 61.4336 14.2368L71.4526 49.947C69.6718 46.8962 66.928 44.5219 63.6513 43.196C60.3746 41.8701 56.7502 41.6676 53.3459 42.6202C49.9416 43.5729 46.9499 45.6268 44.8396 48.4602C42.7293 51.2935 41.6197 54.7462 41.6846 58.2771L41.0127 16.7204C40.9641 13.9834 42.0057 11.3392 43.9085 9.36923C45.8113 7.39927 48.4194 6.26485 51.1593 6.21544Z" fill="white"/>
<path d="M71.4524 49.947C72.8276 52.2982 73.5728 54.9638 73.6161 57.6865L71.4524 49.947Z" fill="white"/>
<path d="M57.7575 73.7292C66.5158 73.7292 73.6158 66.6368 73.6158 57.8879C73.6158 49.1389 66.5158 42.0465 57.7575 42.0465C48.9992 42.0465 41.8992 49.1389 41.8992 57.8879C41.8992 66.6368 48.9992 73.7292 57.7575 73.7292Z" fill="#D3F3F2"/>
<path d="M16.9762 73.7292C25.7345 73.7292 32.8346 66.6368 32.8346 57.8879C32.8346 49.1389 25.7345 42.0465 16.9762 42.0465C8.21792 42.0465 1.11789 49.1389 1.11789 57.8879C1.11789 66.6368 8.21792 73.7292 16.9762 73.7292Z" fill="#D3F3F2"/>
<path d="M57.7508 74.9509C53.2998 74.9114 49.0423 73.1276 45.8948 69.9836C42.7473 66.8395 40.9615 62.5866 40.9218 58.1403C40.8822 53.694 42.5919 49.41 45.6828 46.2105C48.7738 43.0109 52.9988 41.1516 57.4485 41.033H57.7643C62.2109 41.0391 66.4781 42.7853 69.651 45.8972C72.824 49.009 74.6502 53.2388 74.7381 57.6798C74.8154 62.176 73.1045 66.5194 69.9804 69.7571C66.8563 72.9949 62.5742 74.8627 58.0734 74.9509H57.7508ZM57.7508 43.0467H57.4686C54.5106 43.1038 51.6359 44.0359 49.2082 45.7252C46.7805 47.4144 44.9088 49.7849 43.8299 52.5369C42.751 55.2888 42.5132 58.2985 43.1468 61.1854C43.7803 64.0723 45.2567 66.7067 47.3892 68.7553C48.7979 70.1253 50.4661 71.2007 52.2961 71.9188C54.126 72.6369 56.081 72.9831 58.0465 72.9372C62.0127 72.8578 65.7855 71.2107 68.5378 68.3569C71.2901 65.5031 72.7973 61.6755 72.7289 57.7134C72.6498 53.7995 71.039 50.0723 68.2417 47.3306C65.4443 44.589 61.6832 43.0512 57.7643 43.0467H57.7508Z" fill="#283133"/>
<path d="M40.1387 17.7273V16.7204C40.0815 13.914 41.0692 11.1862 42.9104 9.06575C44.7516 6.94526 47.3153 5.58297 50.1046 5.24283C52.8939 4.90268 55.7103 5.6089 58.0081 7.22466C60.3059 8.84043 61.9215 11.2507 62.5419 13.9884L62.7704 14.9685L60.8015 15.4115L60.5798 14.4315C60.0597 12.1883 58.7271 10.2167 56.8387 8.89646C54.9502 7.57621 52.6395 7.00068 50.3516 7.28073C48.0638 7.56078 45.9605 8.67661 44.4471 10.4133C42.9336 12.1499 42.117 14.3846 42.1545 16.6869V17.6937L40.1387 17.7273Z" fill="#283133"/>
<path d="M62.2312 12.9915L60.2943 13.5496L71.228 51.4146L73.1649 50.8565L62.2312 12.9915Z" fill="#283133"/>
<path d="M42.1197 15.6947L40.104 15.7274L40.8154 59.5002L42.831 59.4675L42.1197 15.6947Z" fill="#283133"/>
<path d="M57.7508 74.9509C53.2998 74.9114 49.0423 73.1276 45.8948 69.9836C42.7473 66.8395 40.9615 62.5866 40.9218 58.1403C40.8822 53.694 42.5919 49.41 45.6828 46.2105C48.7738 43.0109 52.9988 41.1516 57.4485 41.033H57.7643C62.2109 41.0391 66.4781 42.7853 69.651 45.8972C72.824 49.009 74.6502 53.2388 74.7381 57.6798C74.8154 62.176 73.1045 66.5194 69.9804 69.7571C66.8563 72.9949 62.5742 74.8627 58.0734 74.9509H57.7508ZM57.7508 43.0467H57.4686C54.5106 43.1038 51.6359 44.0359 49.2082 45.7252C46.7805 47.4144 44.9088 49.7849 43.8299 52.5369C42.751 55.2888 42.5132 58.2985 43.1468 61.1854C43.7803 64.0723 45.2567 66.7067 47.3892 68.7553C48.7979 70.1253 50.4661 71.2007 52.2961 71.9188C54.126 72.6369 56.081 72.9831 58.0465 72.9372C62.0127 72.8578 65.7855 71.2107 68.5378 68.3569C71.2901 65.5031 72.7973 61.6755 72.7289 57.7134C72.6498 53.7995 71.039 50.0723 68.2417 47.3306C65.4443 44.589 61.6832 43.0512 57.7643 43.0467H57.7508Z" fill="#323232"/>
<path d="M40.1387 17.7273V16.7204C40.0815 13.914 41.0692 11.1862 42.9104 9.06575C44.7516 6.94526 47.3153 5.58297 50.1046 5.24283C52.8939 4.90268 55.7103 5.6089 58.0081 7.22466C60.3059 8.84043 61.9215 11.2507 62.5419 13.9884L62.7704 14.9685L60.8015 15.4115L60.5798 14.4315C60.0597 12.1883 58.7271 10.2167 56.8387 8.89646C54.9502 7.57621 52.6395 7.00068 50.3516 7.28073C48.0638 7.56078 45.9605 8.67661 44.4471 10.4133C42.9336 12.1499 42.117 14.3846 42.1545 16.6869V17.6937L40.1387 17.7273Z" fill="#323232"/>
<path d="M62.2312 12.9915L60.2943 13.5496L71.228 51.4146L73.1649 50.8565L62.2312 12.9915Z" fill="#323232"/>
<path d="M42.1197 15.6947L40.104 15.7274L40.8154 59.5002L42.831 59.4675L42.1197 15.6947Z" fill="#283133"/>
<path d="M16.9898 74.9509H16.6672C12.1664 74.8627 7.88429 72.9949 4.76022 69.7571C1.63614 66.5194 -0.0748359 62.176 0.00254145 57.6798H1.01049H0.00254145C0.0634298 54.3391 1.11065 51.0907 3.01282 48.3423C4.915 45.594 7.58739 43.468 10.6947 42.2311C13.8019 40.9943 17.2056 40.7018 20.4787 41.3902C23.7518 42.0786 26.7485 43.7173 29.0927 46.1007C31.4369 48.4841 33.0243 51.506 33.6556 54.7872C34.2869 58.0684 33.934 61.4628 32.6412 64.5445C31.3484 67.6261 29.1734 70.2577 26.3889 72.1091C23.6044 73.9604 20.3346 74.9491 16.9898 74.9509ZM16.9898 43.0467C13.0706 43.0854 9.32297 44.6585 6.55246 47.4279C3.78196 50.1973 2.20969 53.9419 2.17361 57.8569C2.13752 61.772 3.64049 65.5449 6.35947 68.3648C9.07846 71.1847 12.7964 72.8264 16.7143 72.9372C20.6817 73.0091 24.5154 71.5047 27.373 68.7546C30.2307 66.0045 31.8785 62.2336 31.9544 58.2705C32.0228 54.3084 30.5156 50.4808 27.7633 47.627C25.011 44.7732 21.2382 43.1261 17.272 43.0467H16.9898Z" fill="#323232"/>
<path d="M34.6018 17.7273L32.5859 17.6937V16.6869C32.6234 14.3846 31.8068 12.1499 30.2933 10.4133C28.7799 8.67661 26.6767 7.56078 24.3888 7.28073C22.1009 7.00068 19.7902 7.57621 17.9017 8.89646C16.0133 10.2167 14.6807 12.1883 14.1607 14.4315L13.9389 15.4115L11.9701 14.9685L12.1985 13.9884C12.8189 11.2507 14.4345 8.84043 16.7323 7.22466C19.0301 5.6089 21.8465 4.90268 24.6359 5.24283C27.4252 5.58297 29.9888 6.94526 31.83 9.06575C33.6712 11.1862 34.6589 13.914 34.6018 16.7204V17.7273Z" fill="#323232"/>
<path d="M12.4982 12.9728L1.55785 50.8359L3.49468 51.3944L14.435 13.5313L12.4982 12.9728Z" fill="#323232"/>
<path d="M32.6055 15.7039L31.8942 59.4767L33.9098 59.5094L34.6212 15.7366L32.6055 15.7039Z" fill="#323232"/>
<path d="M34.185 41.0932L32.1692 41.0597V40.0528C32.2216 37.1265 31.2383 34.2755 29.3924 32.0026C27.5465 29.7296 24.9566 28.1806 22.0792 27.6285C19.2018 27.0765 16.2217 27.5568 13.6642 28.9849C11.1067 30.413 9.13594 32.6971 8.09939 35.4347L7.74325 36.3811L5.86174 35.6696L6.2179 34.7231C7.42429 31.5442 9.71493 28.8925 12.6864 27.235C15.6578 25.5775 19.1195 25.0206 22.4616 25.6623C25.8038 26.304 28.812 28.1032 30.9566 30.743C33.1011 33.3829 34.2444 36.6939 34.185 40.0931V41.0932Z" fill="#323232"/>
<path d="M40.5289 41.0934V40.0865C40.4695 36.6873 41.6128 33.3763 43.7573 30.7365C45.9019 28.0966 48.9101 26.2974 52.2523 25.6557C55.5944 25.014 59.0561 25.5709 62.0275 27.2284C64.999 28.8859 67.2896 31.5376 68.496 34.7166L68.8521 35.663L66.9706 36.3745L66.6145 35.4281C65.6945 33.036 64.0608 30.9842 61.9346 29.5507C59.8083 28.1171 57.2923 27.371 54.7275 27.4134C51.4356 27.4769 48.3036 28.843 46.0193 31.2117C43.7351 33.5803 42.4854 36.7578 42.5448 40.0462V41.0531L40.5289 41.0934Z" fill="#323232"/>
<path d="M37.209 51.1687C36.2348 51.1687 35.2825 50.8801 34.4726 50.3395C33.6626 49.7989 33.0313 49.0304 32.6585 48.1314C32.2857 47.2323 32.1881 46.243 32.3782 45.2886C32.5682 44.3342 33.0373 43.4575 33.7262 42.7694C34.415 42.0813 35.2926 41.6126 36.2481 41.4228C37.2035 41.2329 38.1939 41.3304 39.0939 41.7028C39.9939 42.0752 40.7632 42.7058 41.3044 43.5149C41.8456 44.3241 42.1345 45.2753 42.1345 46.2485C42.1327 47.5528 41.6132 48.8033 40.6899 49.7256C39.7665 50.648 38.5148 51.1669 37.209 51.1687ZM37.209 43.342C36.6335 43.342 36.071 43.5125 35.5925 43.8318C35.114 44.1512 34.7411 44.6051 34.5209 45.1362C34.3007 45.6673 34.2431 46.2517 34.3553 46.8155C34.4676 47.3793 34.7447 47.8972 35.1516 48.3037C35.5585 48.7101 36.0769 48.987 36.6414 49.0991C37.2058 49.2113 37.7908 49.1537 38.3224 48.9337C38.8541 48.7137 39.3085 48.3412 39.6282 47.8632C39.9479 47.3853 40.1186 46.8233 40.1186 46.2485C40.1186 45.4776 39.812 44.7383 39.2664 44.1933C38.7207 43.6482 37.9807 43.342 37.209 43.342Z" fill="#323232"/>
<path d="M42.2958 28.1115H40.2799V27.1248C40.2799 26.3504 39.972 25.6077 39.4238 25.0601C38.8756 24.5125 38.1322 24.2049 37.3569 24.2049C36.5817 24.2049 35.8382 24.5125 35.29 25.0601C34.7418 25.6077 34.4339 26.3504 34.4339 27.1248V28.1317H32.418V27.1248C32.418 26.4769 32.5457 25.8354 32.7939 25.2368C33.0421 24.6382 33.4059 24.0943 33.8646 23.6362C34.3232 23.1781 34.8676 22.8146 35.4669 22.5667C36.0661 22.3188 36.7083 22.1912 37.3569 22.1912C38.0055 22.1912 38.6477 22.3188 39.247 22.5667C39.8462 22.8146 40.3907 23.1781 40.8493 23.6362C41.3079 24.0943 41.6717 24.6382 41.9199 25.2368C42.1681 25.8354 42.2958 26.4769 42.2958 27.1248V28.1115Z" fill="#323232"/>
<path d="M42.4706 36.8645H40.4547V35.851C40.4547 35.0303 40.1283 34.2432 39.5474 33.6629C38.9664 33.0825 38.1785 32.7565 37.3569 32.7565C36.5353 32.7565 35.7474 33.0825 35.1665 33.6629C34.5855 34.2432 34.2591 35.0303 34.2591 35.851V36.8578H32.2432V35.851C32.2432 34.4962 32.782 33.1969 33.741 32.2389C34.7 31.281 36.0007 30.7428 37.3569 30.7428C38.7131 30.7428 40.0138 31.281 40.9728 32.2389C41.9318 33.1969 42.4706 34.4962 42.4706 35.851V36.8645Z" fill="#323232"/>
<path d="M58.6175 71.0711H57.6096C54.1782 71.0676 50.8884 69.7044 48.4621 67.2806C46.0358 64.8569 44.6711 61.5706 44.6675 58.143V57.1361H46.6834V58.143C46.687 61.0366 47.8393 63.8106 49.8876 65.8567C51.9358 67.9028 54.7129 69.0538 57.6096 69.0574H58.6175V71.0711Z" fill="#323232"/>
<path d="M17.8228 70.7557H16.8149C13.3835 70.7522 10.0937 69.3889 7.66739 66.9652C5.24106 64.5415 3.87639 61.2552 3.87283 57.8275V56.8207H5.88872V57.8275C5.89405 60.7206 7.04691 63.4936 9.0948 65.5393C11.1427 67.585 13.9187 68.7367 16.8149 68.742H17.8228V70.7557Z" fill="#323232"/>
<path d="M31.504 9.90059L29.5352 9.49784L29.7368 8.51111C30.0041 7.22221 29.7479 5.88003 29.0246 4.77981C28.3012 3.6796 27.17 2.91148 25.8797 2.64444C24.5894 2.3774 23.2458 2.63331 22.1444 3.35588C21.043 4.07844 20.2741 5.20848 20.0068 6.49738L19.8052 7.48411L17.8296 7.08138L18.0312 6.09465C18.4028 4.28235 19.4798 2.69173 21.0254 1.67271C22.571 0.653684 24.4586 0.28974 26.2728 0.660922C28.087 1.0321 29.6794 2.10801 30.6995 3.65196C31.7196 5.19592 32.0839 7.08143 31.7123 8.89373L31.504 9.90059Z" fill="#283133"/>
<path d="M42.8934 9.53808L42.7523 8.53793C42.6051 7.62514 42.6411 6.69222 42.8581 5.79343C43.0752 4.89464 43.4689 4.04793 44.0165 3.30255C44.5641 2.55716 45.2546 1.92799 46.0479 1.45161C46.8411 0.97523 47.7212 0.661158 48.6371 0.527665C49.5529 0.394171 50.4862 0.443934 51.3827 0.674028C52.2791 0.904123 53.1208 1.30996 53.8588 1.86796C54.5967 2.42596 55.2163 3.12496 55.6814 3.92432C56.1465 4.72368 56.4478 5.60745 56.5678 6.5242L56.7157 7.52435L54.6998 7.80628L54.552 6.81283C54.3623 5.51266 53.6647 4.34051 52.6119 3.55297C51.559 2.76544 50.2367 2.42668 48.9344 2.61086C47.6315 2.80024 46.4569 3.49806 45.6684 4.5513C44.8798 5.60453 44.5416 6.92718 44.7279 8.22917L44.869 9.22259L42.8934 9.53808Z" fill="#323232"/>
</svg>
