<svg width="87" height="89" viewBox="0 0 87 89" fill="none" xmlns="http://www.w3.org/2000/svg">
<path d="M39.3598 14.8157H12.5504V49.6506H39.3598V14.8157Z" fill="#D3F3F2"/>
<path d="M30.4049 43.0676H45.5349H58.5972L48.9163 25.3773L58.5972 7.68701H45.5349H30.4049V43.0676Z" fill="white"/>
<path d="M1.02341 6.43693C1.02341 5.50519 1.30003 4.59436 1.81823 3.81965C2.33643 3.04493 3.07298 2.44111 3.93471 2.08455C4.79645 1.72799 5.74465 1.6347 6.65947 1.81648C7.57428 1.99825 8.41463 2.44692 9.07418 3.10576C9.73372 3.7646 10.1829 4.60401 10.3648 5.51785C10.5468 6.43169 10.4534 7.37891 10.0965 8.23973C9.73954 9.10055 9.13505 9.8363 8.35951 10.354C7.58397 10.8716 6.67216 11.1479 5.73943 11.1479C5.11985 11.1488 4.5062 11.0276 3.93362 10.7911C3.36103 10.5547 2.8408 10.2077 2.40269 9.77011C1.96459 9.33248 1.61724 8.81278 1.38056 8.24081C1.14388 7.66883 1.0225 7.05583 1.02341 6.43693Z" fill="#26C5BF"/>
<path d="M7.82772 14.8157V88.174V14.8157V88.174H3.6441V14.8157H7.82772Z" fill="#D3F3F2"/>
<path d="M8.86497 14.8157H6.7905V88.174H8.86497V14.8157Z" fill="#283133"/>
<path d="M8.8653 88.1739H6.79079V15.8517H4.68172V88.1739H2.60721V13.7794H8.8653V88.1739Z" fill="#323232"/>
<path d="M40.3974 50.6796H11.5136V13.7794H30.4053V15.8517H13.5881V48.6074H38.3229V43.0675H40.3974V50.6796Z" fill="#323232"/>
<path d="M60.3469 44.0969H29.3678V6.64404H60.3469L50.0989 25.3705L60.3469 44.0969ZM31.4423 42.0246H56.8479L47.734 25.3705L56.8479 8.71631H31.4423V42.0246Z" fill="#323232"/>
<path d="M61.6956 48.4623H50.4449V50.5345H61.6956V48.4623Z" fill="#323232"/>
<path d="M67.1235 48.4623H64.8001V50.5345H67.1235V48.4623Z" fill="#323232"/>
<path d="M80.6142 20.7008H69.3636V22.7731H80.6142V20.7008Z" fill="#323232"/>
<path d="M86.0425 20.7008H83.7192V22.7731H86.0425V20.7008Z" fill="#323232"/>
<path d="M77.7105 31.1935H59.5726V33.2658H77.7105V31.1935Z" fill="#323232"/>
<path d="M8.86497 14.8157H6.7905V88.174H8.86497V14.8157Z" fill="#323232"/>
<path d="M5.75329 12.1839C4.6154 12.1839 3.50308 11.8468 2.55696 11.2153C1.61084 10.5838 0.873392 9.68626 0.437941 8.63611C0.00248968 7.58597 -0.11144 6.43041 0.110551 5.31558C0.332542 4.20075 0.880511 3.17671 1.68512 2.37297C2.48973 1.56922 3.51484 1.02188 4.63087 0.80013C5.74689 0.578377 6.90368 0.692184 7.95495 1.12717C9.00622 1.56215 9.90479 2.29877 10.537 3.24388C11.1691 4.18898 11.5066 5.30012 11.5066 6.43679C11.5066 7.19151 11.3578 7.93884 11.0686 8.63611C10.7795 9.33338 10.3557 9.96693 9.82145 10.5006C9.28721 11.0343 8.65297 11.4576 7.95495 11.7464C7.25693 12.0352 6.50882 12.1839 5.75329 12.1839ZM5.75329 2.76888C5.0254 2.76888 4.31388 2.98458 3.70876 3.38868C3.10364 3.79278 2.6321 4.36712 2.35387 5.03901C2.07564 5.71089 2.0032 6.45012 2.14571 7.16315C2.28822 7.87619 2.63929 8.53097 3.15447 9.04463C3.66965 9.55829 4.32577 9.90773 5.03984 10.0487C5.75391 10.1898 6.49378 10.116 7.16587 9.8368C7.83796 9.5576 8.41204 9.08552 8.81544 8.48029C9.21883 7.87506 9.43343 7.1639 9.43206 6.43679C9.43023 5.46337 9.04185 4.53044 8.35215 3.84277C7.66244 3.1551 6.72776 2.76887 5.75329 2.76888Z" fill="#323232"/>
</svg>
