<svg width="23" height="23" viewBox="0 0 23 23" fill="none" xmlns="http://www.w3.org/2000/svg">
<path d="M10.8089 22.3136C11.3947 22.8994 12.3445 22.8994 12.9303 22.3136L22.4762 12.7677C23.062 12.1819 23.062 11.2322 22.4762 10.6464C21.8904 10.0606 20.9407 10.0606 20.3549 10.6464L11.8696 19.1317L3.38432 10.6464C2.79853 10.0606 1.84878 10.0606 1.263 10.6464C0.67721 11.2322 0.67721 12.1819 1.263 12.7677L10.8089 22.3136ZM10.3696 20.476L10.3696 21.253L13.3696 21.253L13.3696 20.476L10.3696 20.476Z" fill="#12B7B6"/>
<path d="M10.8089 12.2122C11.3947 12.798 12.3445 12.798 12.9303 12.2122L22.4762 2.66627C23.062 2.08048 23.062 1.13073 22.4762 0.544946C21.8904 -0.0408397 20.9407 -0.0408398 20.3549 0.544946L11.8696 9.03023L3.38432 0.544945C2.79853 -0.0408405 1.84878 -0.0408406 1.263 0.544945C0.67721 1.13073 0.67721 2.08048 1.263 2.66627L10.8089 12.2122ZM10.3696 10.3745L10.3696 11.1515L13.3696 11.1515L13.3696 10.3745L10.3696 10.3745Z" fill="#12B7B6"/>
</svg>
