<svg width="67" height="66" viewBox="0 0 67 68" fill="none" xmlns="http://www.w3.org/2000/svg">
<g filter="url(#filter0_ii_2_63)">
<rect x="0.23407" y="0.962036" width="66.0481" height="66.0481" rx="33.024" fill="#F9F9F9"/>
</g>
<path d="M31.8089 46.3136C32.3947 46.8994 33.3445 46.8994 33.9303 46.3136L43.4762 36.7677C44.062 36.1819 44.062 35.2322 43.4762 34.6464C42.8904 34.0606 41.9407 34.0606 41.3549 34.6464L32.8696 43.1317L24.3843 34.6464C23.7985 34.0606 22.8488 34.0606 22.263 34.6464C21.6772 35.2322 21.6772 36.1819 22.263 36.7677L31.8089 46.3136ZM31.3696 44.476L31.3696 45.253L34.3696 45.253L34.3696 44.476L31.3696 44.476Z" fill="#12B7B6"/>
<path d="M31.8089 36.2122C32.3947 36.798 33.3445 36.798 33.9303 36.2122L43.4762 26.6663C44.062 26.0805 44.062 25.1307 43.4762 24.5449C42.8904 23.9592 41.9407 23.9592 41.3549 24.5449L32.8696 33.0302L24.3843 24.5449C23.7985 23.9592 22.8488 23.9592 22.263 24.5449C21.6772 25.1307 21.6772 26.0805 22.263 26.6663L31.8089 36.2122ZM31.3696 34.3745L31.3696 35.1515L34.3696 35.1515L34.3696 34.3745L31.3696 34.3745Z" fill="#12B7B6"/>
<defs>
<filter id="filter0_ii_2_63" x="-9.76593" y="-9.03796" width="86.0481" height="86.0481" filterUnits="userSpaceOnUse" color-interpolation-filters="sRGB">
<feFlood flood-opacity="0" result="BackgroundImageFix"/>
<feBlend mode="normal" in="SourceGraphic" in2="BackgroundImageFix" result="shape"/>
<feColorMatrix in="SourceAlpha" type="matrix" values="0 0 0 0 0 0 0 0 0 0 0 0 0 0 0 0 0 0 127 0" result="hardAlpha"/>
<feOffset dx="10" dy="10"/>
<feGaussianBlur stdDeviation="10"/>
<feComposite in2="hardAlpha" operator="arithmetic" k2="-1" k3="1"/>
<feColorMatrix type="matrix" values="0 0 0 0 0 0 0 0 0 0 0 0 0 0 0 0 0 0 0.08 0"/>
<feBlend mode="normal" in2="shape" result="effect1_innerShadow_2_63"/>
<feColorMatrix in="SourceAlpha" type="matrix" values="0 0 0 0 0 0 0 0 0 0 0 0 0 0 0 0 0 0 127 0" result="hardAlpha"/>
<feOffset dx="-10" dy="-10"/>
<feGaussianBlur stdDeviation="10"/>
<feComposite in2="hardAlpha" operator="arithmetic" k2="-1" k3="1"/>
<feColorMatrix type="matrix" values="0 0 0 0 1 0 0 0 0 1 0 0 0 0 1 0 0 0 1 0"/>
<feBlend mode="normal" in2="effect1_innerShadow_2_63" result="effect2_innerShadow_2_63"/>
</filter>
</defs>
</svg>
