<svg width="64" height="47" viewBox="0 0 64 47" fill="none" xmlns="http://www.w3.org/2000/svg">
<path d="M61.4744 0.0524902H2.42298C1.29846 0.0524902 0.386719 0.967295 0.386719 2.09559V43.9791C0.386719 45.1074 1.29846 46.0222 2.42298 46.0222H61.4744C62.5989 46.0222 63.5107 45.1074 63.5107 43.9791V2.09559C63.5107 0.967295 62.5989 0.0524902 61.4744 0.0524902ZM61.4744 2.09559V10.268H2.42298V2.09559H61.4744ZM2.42298 43.9791V12.3111H61.4744V43.9791H2.42298Z" fill="#12B7B6"/>
<path d="M6.49555 9.24595C8.18233 9.24595 9.54994 7.8738 9.54994 6.18144C9.54994 4.48909 8.18233 3.11694 6.49555 3.11694C4.80878 3.11694 3.44116 4.48909 3.44116 6.18144C3.44116 7.8738 4.80878 9.24595 6.49555 9.24595ZM6.49555 5.15994C7.05781 5.15994 7.51368 5.61733 7.51368 6.18144C7.51368 6.74556 7.05781 7.20295 6.49555 7.20295C5.93329 7.20295 5.47742 6.74556 5.47742 6.18144C5.47742 5.61733 5.93329 5.15994 6.49555 5.15994Z" fill="#12B7B6"/>
<path d="M13.6223 9.24595C15.309 9.24595 16.6767 7.8738 16.6767 6.18144C16.6767 4.48909 15.309 3.11694 13.6223 3.11694C11.9355 3.11694 10.5679 4.48909 10.5679 6.18144C10.5679 7.8738 11.9355 9.24595 13.6223 9.24595ZM13.6223 5.15994C14.1845 5.15994 14.6404 5.61733 14.6404 6.18144C14.6404 6.74556 14.1845 7.20295 13.6223 7.20295C13.06 7.20295 12.6041 6.74556 12.6041 6.18144C12.6041 5.61733 13.06 5.15994 13.6223 5.15994Z" fill="#12B7B6"/>
<path d="M20.7494 9.24595C22.4362 9.24595 23.8038 7.8738 23.8038 6.18144C23.8038 4.48909 22.4362 3.11694 20.7494 3.11694C19.0627 3.11694 17.6951 4.48909 17.6951 6.18144C17.6951 7.8738 19.0627 9.24595 20.7494 9.24595ZM20.7494 5.15994C21.3117 5.15994 21.7676 5.61733 21.7676 6.18144C21.7676 6.74556 21.3117 7.20295 20.7494 7.20295C20.1872 7.20295 19.7313 6.74556 19.7313 6.18144C19.7313 5.61733 20.1872 5.15994 20.7494 5.15994Z" fill="#12B7B6"/>
<path d="M58.42 6.18216H59.4381C60.0004 6.18216 60.4562 5.72467 60.4562 5.16041C60.4562 4.59616 60.0004 4.13867 59.4381 4.13867H58.42C57.8577 4.13867 57.4019 4.59616 57.4019 5.16041C57.4019 5.72467 57.8577 6.18216 58.42 6.18216Z" fill="#12B7B6"/>
<path d="M47.2205 6.18216H54.3474C54.9097 6.18216 55.3656 5.72467 55.3656 5.16041C55.3656 4.59616 54.9097 4.13867 54.3474 4.13867H47.2205C46.6583 4.13867 46.2024 4.59616 46.2024 5.16041C46.2024 5.72467 46.6583 6.18216 47.2205 6.18216Z" fill="#12B7B6"/>
<path d="M21.7676 14.354H5.4776C4.91534 14.354 4.45947 14.8114 4.45947 15.3756V21.5049C4.45947 22.0691 4.91534 22.5265 5.4776 22.5265H21.7676C22.3299 22.5265 22.7858 22.0691 22.7858 21.5049V15.3756C22.7858 14.8114 22.3299 14.354 21.7676 14.354ZM20.7495 20.4834H6.49573V16.3971H20.7495V20.4834Z" fill="#12B7B6"/>
<path d="M21.7676 23.5479H5.4776C4.91534 23.5479 4.45947 24.0053 4.45947 24.5694V40.9144C4.45947 41.4785 4.91534 41.9359 5.4776 41.9359H21.7676C22.3299 41.9359 22.7858 41.4785 22.7858 40.9144V24.5694C22.7858 24.0053 22.3299 23.5479 21.7676 23.5479ZM20.7495 39.8928H6.49573V25.591H20.7495V39.8928Z" fill="#12B7B6"/>
<path d="M58.4198 14.354H25.8397C25.2774 14.354 24.8215 14.8114 24.8215 15.3756V40.9144C24.8215 41.4786 25.2774 41.936 25.8397 41.936H58.4198C58.982 41.936 59.4379 41.4786 59.4379 40.9144V15.3756C59.4379 14.8114 58.982 14.354 58.4198 14.354ZM57.4016 39.8929H26.8578V16.3971H57.4016V39.8929Z" fill="#12B7B6"/>
</svg>
