<svg width="72" height="59" viewBox="0 0 72 59" fill="none" xmlns="http://www.w3.org/2000/svg">
<path d="M15.0533 34H6.28214C4.40709 34 2.82547 35.3962 2.5929 37.2568L2.52239 37.8209C2.245 40.04 3.97529 42 6.21163 42H9.39585C10.9593 42 12.3557 42.9781 12.8899 44.4474L16.2712 53.7459C17.4837 57.0802 22.2325 56.9836 23.3083 53.6026L26.953 42.1476C28.0525 38.6922 32.9425 38.6938 34.0396 42.1499L37.1375 51.9082C38.2174 55.3097 43.0039 55.3838 44.1884 52.0172L47.9998 41.1847C48.8024 38.9038 51.8911 38.5731 53.1584 40.6323C53.6814 41.4823 54.6079 42 55.6059 42H65.7821C67.8354 42 69.5 40.3354 69.5 38.2821V37.7179C69.5 35.6646 67.8354 34 65.7821 34H57.9004C56.4392 34 55.1134 33.144 54.512 31.8123L52.0523 26.3658C50.7096 23.3928 46.4623 23.4668 45.2241 26.4849L45.1388 26.693C43.7445 30.0916 38.7907 29.6246 38.0562 26.0253L33.8895 5.60838C33.0921 1.70113 27.5382 1.62002 26.627 5.50232L19.9261 34.0539C19.5589 35.6185 17.5323 36.0431 16.568 34.7574C16.2104 34.2806 15.6493 34 15.0533 34Z" stroke="#2DBEBD" stroke-width="3.71795" stroke-linecap="round"/>
</svg>
